PathFileType	4	(X/Y/Z)	C:/Users/beibeiliu/ov580/test_trc/User2\sequence.8_training_dense_left.trc
DataRate	CameraRate	NumFrames	NumMarkers	Units	OrigDataRate	OrigDataStartFrame	OrigNumFrames
120	120	17	19	mm	120	30	117
Frame#	Time	ThumbCMC			ThumbMCP			ThumbIP			ThumbTip			IndexMCP			IndexPIP			IndexTip			MiddleMCP			MiddlePIP			MiddleTip			RingMCP			RingPIP			RingTip			PinkyMCP			PinkyPIP			PinkyTip			BackHand1			BackHand2			BackHand3	
		X0	Y0	Z0	X1	Y1	Z1	X2	Y2	Z2	X3	Y3	Z3	X4	Y4	Z4	X5	Y5	Z5	X6	Y6	Z6	X7	Y7	Z7	X8	Y8	Z8	X9	Y9	Z9	X10	Y10	Z10	X11	Y11	Z11	X12	Y12	Z12	X13	Y13	Z13	X14	Y14	Z14	X15	Y15	Z15	X16	Y16	Z16	X17	Y17	Z17	X18	Y18	Z18	
29	0.241667	-205.405	32.1671	-7.36923	-184.175	31.2143	-34.3907	-166.054	30.6385	-66.0049	-177.887	22.9333	-95.4273	-229.616	69.1579	-80.3051	-214.915	59.0281	-109.965	-203.577	23.4196	-110.705	-261.943	74.3728	-79.3659	-258.861	87.986	-111.271	-251.883	91.8262	-146.197	-280.46	56.8822	-76.0545	-286.049	70.4172	-101.912	-287.868	77.5275	-130.135	-290.423	27.7383	-69.5446	-305.985	37.6742	-92.0244	-316.273	48.8427	-110.557	-274.023	32.6138	-26.9374	-274.757	22.8585	1.95627	-247.729	48.1734	-7.89851	
30	0.25	-206.961	28.2918	-10.4036	-180.972	25.0314	-36.5042	-174.299	20.8048	-67.3425	-185.921	19.7062	-96.3364	-218.018	76.0135	-77.655	-214.229	65.7432	-105.549	-211.19	26.5848	-111.943	-253.268	82.2986	-70.8006	-250.243	100.069	-103.445	-245.837	104.055	-134.892	-275.824	72.9609	-68.7514	-280.584	88.3243	-94.485	-273.41	99.4244	-121.805	-292.806	44.734	-64.6079	-303.718	56.8786	-83.1406	-314.389	76.2412	-101.896	-277.394	43.4886	-25.2138	-275.955	29.3802	6.33524	-244.521	50.8241	-5.06404	
31	0.258333	-203.377	25.4317	-6.65981	-179.555	18.7542	-36.3198	-175.302	18.5007	-67.8592	-182.326	20.7873	-98.4606	-211.368	81.8197	-71.521	-203.162	72.8654	-99.8437	-206.326	38.2266	-110.591	-238.015	97.0625	-64.1336	-232.585	113.461	-93.4804	-226.082	121.747	-125.39	-266.874	84.9755	-59.7935	-264.986	104.338	-80.1179	-259.517	119.125	-109.562	-287.727	59.6884	-56.2327	-297.543	80.8658	-75.0786	-301.124	97.312	-88.5959	-269.686	54.6269	-18.5533	-269.434	37.6341	11.071	-232.542	54.7515	-0.967563	
32	0.266667	-195.827	26.4144	-5.3832	-175.748	18.4821	-33.1493	-166.594	17.8237	-67.9793	-178.558	23.821	-94.6029	-195.75	84.5331	-60.1558	-191.576	77.3596	-94.6098	-199.189	46.3585	-108.525	-225.201	102.171	-54.7186	-216.797	123.293	-81.8585	-207.784	131.123	-114.16	-249.559	96.1031	-51.4166	-249.767	116.688	-71.106	-242.636	131.151	-98.6177	-277.09	73.8808	-51.8737	-278.991	96.2384	-68.1232	-284.303	117.268	-82.9095	-259.72	63.5689	-15.0524	-260.911	44.3164	14.1971	-228.485	56.5709	3.27958	
33	0.275	-182.357	23.3035	-0.675877	-163.725	14.9344	-31.4333	-156.392	15.2591	-68.6123	-166.076	18.2688	-91.1994	-183.996	80.9771	-60.7294	-177.955	72.9817	-92.8055	-185.263	41.763	-106.863	-206.14	102.401	-54.0798	-198.43	120.591	-79.9669	-189.631	128.344	-110.089	-233.262	97.7835	-51.8661	-232.084	116.326	-70.99	-224.172	131.63	-99.8349	-262.799	79.0457	-51.5639	-263.401	98.1445	-68.1496	-269.994	117.489	-79.1757	-242.979	64.6262	-13.2876	-249.039	49.6383	13.0925	-214.85	58.9347	5.73886	
34	0.283333	-173.752	18.6076	2.08824	-152.637	4.71961	-25.9423	-146.053	1.90584	-59.7449	-155.243	5.39884	-87.3414	-168.796	69.0816	-61.3902	-164.298	55.5127	-95.6935	-171.64	29.7706	-107.13	-191.609	93.006	-59.4759	-183.265	107.593	-89.4318	-172.858	112	-121.947	-222.847	87.6619	-56.5053	-214.973	106.685	-79.3421	-209.3	117.928	-108.618	-249.102	65.1732	-53.4632	-250.959	88.5772	-73.8145	-252.596	107.212	-88.3387	-231.043	59.0745	-15.0708	-239.471	44.8279	15.5116	-204.247	54.6136	4.27679	
35	0.291667	-163.507	13.0452	7.52	-143.64	-0.946565	-21.8167	-137.001	-10.1623	-51.7391	-144.505	-13.5661	-79.5277	-157.059	53.5119	-66.3753	-149.112	32.563	-95.4996	-157.905	5.87373	-103.204	-185.549	76.5675	-70.3958	-171.674	84.1283	-99.8746	-161.477	85.1257	-130.63	-213.94	71.2916	-66.0634	-206.847	86.0459	-92.4989	-199.11	91.0613	-119.051	-239.424	54.3507	-61.5465	-241.382	68.6218	-84.1235	-245.686	80.5436	-100.451	-224.476	52.1231	-20.8714	-232.176	43.5462	11.8188	-195.164	47.6611	2.71076	
36	0.3	-156.936	15.136	10.5573	-136.583	-2.96304	-14.1516	-127.06	-18.0926	-41.5629	-127.729	-29.0834	-70.7137	-155.102	37.3659	-71.3059	-145.468	17.4109	-92.9039	-150.515	-16.0831	-96.6736	-181.136	56.7876	-76.3353	-168.391	60.1584	-106.032	-162.34	55.329	-139.003	-209.788	50.0655	-72.6839	-204.461	58.5933	-99.2691	-193.639	61.1652	-133.491	-231.516	32.9871	-67.6471	-234.008	40.9194	-91.5578	-241.26	50.8719	-113.917	-222.949	38.6936	-23.3424	-227.639	39.1384	6.9058	-191.893	44.5889	-1.90596	
37	0.308333	-157.386	21.9784	9.52024	-130.868	3.84652	-8.67655	-117.496	-15.1591	-30.2102	-114.751	-31.2289	-56.0199	-150.537	25.5026	-75.0624	-137.147	1.31768	-88.6006	-135.015	-30.595	-81.7513	-183.239	39.0249	-82.0389	-169.814	38.0681	-113.941	-159.996	28.764	-143.173	-209.992	29.8853	-79.3186	-201.118	34.8576	-110.063	-195.595	30.306	-141.738	-229.543	8.94876	-65.6611	-232.628	11.063	-94.0623	-232.93	17.9563	-115.613	-218.748	28.8019	-25.1356	-232.552	31.2994	2.16644	-190.921	44.8452	-8.01724	
38	0.316667	-163.933	34.4732	8.92294	-128.244	21.2255	-0.135026	-107.533	2.27688	-21.5747	-106.145	-17.546	-39.995	-150.494	27.519	-70.2335	-125.97	3.14795	-78.5247	-122.161	-27.9421	-68.4898	-179.719	31.2166	-84.0758	-166.972	24.391	-116.362	-152.21	12.5804	-145.356	-204.162	15.2712	-83.1731	-199.564	13.0641	-111.281	-189.896	6.77499	-138.849	-220.288	-8.43795	-68.6379	-224.296	-13.6948	-93.3155	-228.372	-13.0719	-120.568	-221.73	16.4972	-29.7769	-231.609	25.9456	-2.27418	-199.248	46.0572	-12.7838	
39	0.325	-172.447	45.014	7.13392	-138.562	38.0703	1.65168	-107.714	23.0753	-18.1677	-99.692	1.46086	-38.752	-149.609	31.0659	-72.6721	-126.456	15.5242	-76.3284	-111.694	-12.9284	-58.6683	-183.592	25.8976	-90.2937	-165.613	21.3035	-118.352	-150.547	11.5495	-140.613	-201.942	8.80366	-82.6332	-195.97	3.06851	-112.093	-184.882	-4.22007	-140.559	-214.63	-17.2456	-68.4191	-214.884	-24.4046	-93.133	-215.425	-29.083	-118.923	-221.47	14.5896	-32.1457	-236.394	17.2708	-5.24198	-207.588	46.0423	-14.3398	
40	0.333333	-178.18	58.6787	6.63811	-144.882	54.8575	-0.720677	-113.305	47.1313	-15.8657	-99.3008	27.1556	-34.3235	-157.383	41.333	-74.8891	-129.082	29.8942	-75.5729	-112.294	7.55898	-59.3536	-187.944	30.5538	-89.9572	-170.815	28.7764	-117.48	-147.659	24.8888	-140.919	-204.301	7.44141	-83.1901	-196.887	6.01191	-111.064	-179.651	2.09173	-139.79	-209.153	-14.7425	-64.0934	-209.331	-25.7117	-90.4318	-207.931	-27.4728	-116.267	-223.289	8.97758	-36.0253	-239.315	14.7746	-6.01936	-218.685	45.3299	-18.0194	
41	0.341667	-195.265	71.7866	3.84871	-162.46	75.8999	0.136332	-125.347	77.0171	-18.0151	-111.016	58.5095	-34.6785	-170.042	57.6111	-74.4822	-139.557	53.5765	-79.1295	-116.031	38.4344	-60.2763	-193.185	35.4043	-91.7841	-175.403	37.6602	-119.115	-151.807	32.5624	-142.135	-202.799	8.70195	-81.6014	-193.228	10.8739	-109.71	-175.569	10.5286	-136.144	-201.649	-15.6977	-62.7907	-196.833	-22.5999	-89.4623	-193.059	-29.703	-116.072	-221.338	10.4824	-33.8677	-238.169	13.6478	-6.14842	-227.498	47.6239	-18.3227	
42	0.35	-210.834	76.3357	-2.88467	-182.84	97.8756	-6.79119	-149.632	100.644	-24.0072	-129.122	90.3838	-34.7415	-182.265	67.4398	-78.0878	-147.352	72.6996	-80.2897	-121.846	73.29	-56.8623	-192.389	37.0894	-92.5362	-174.381	39.9733	-119.406	-148.747	48.2726	-142.163	-192.418	9.93054	-78.3226	-180.942	7.10117	-108.14	-164.276	14.0634	-132.488	-183.281	-10.3798	-56.9905	-175.381	-17.1252	-83.1682	-168.621	-22.4661	-106.745	-214.854	9.31756	-29.5204	-231.774	6.71723	-3.37392	-232.964	41.1871	-20.7039	
43	0.358333	-228.097	74.1567	-8.93596	-205.854	99.2881	-17.2851	-179.054	116.526	-29.9682	-149.235	111.206	-43.1358	-184.889	63.2273	-81.6979	-161.819	83.6279	-86.2104	-138.712	95.2058	-64.7381	-187.28	31.4216	-88.0136	-170.293	41.9221	-120.185	-146.328	50.8333	-138.114	-178.357	10.9477	-77.4752	-166.513	9.11311	-100.559	-146.124	14.8117	-126.258	-165.565	-0.40414	-52.9312	-151.925	-8.77444	-72.78	-142.985	-14.473	-92.8894	-202.913	8.29032	-29.8572	-219.095	-1.35952	-0.833709	-233.616	32.101	-23.1963	
44	0.366667	-235.561	64.9907	-11.4443	-222.279	100.659	-23.5635	-195.429	121.733	-42.34	-169.433	117.574	-49.1472	-194.115	62.751	-83.9369	-171.712	84.4304	-90.3773	-151.579	104.68	-67.7358	-188.799	30.8145	-87.7643	-170.768	37.1557	-116.634	-149.367	52.8922	-140.514	-171.45	10.657	-75.5577	-159.844	9.77294	-97.6948	-139.822	17.6152	-123.832	-158.686	7.38197	-45.608	-139.948	-1.99284	-69.5045	-129.68	-6.62533	-92.1265	-197.226	8.23047	-25.7626	-215.091	1.45885	-0.932762	-232.522	25.3138	-28.0404	
45	0.375	-239.2	65.3527	-13.5036	-225.921	98.5905	-26.4404	-203.305	117.544	-40.0244	-179.174	121.897	-50.6665	-200.308	60.9946	-86.8442	-178.984	85.9889	-92.8493	-161.535	105.974	-73.0939	-192.053	29.0579	-92.3115	-172.522	36.2328	-121.631	-156.017	50.1557	-142.831	-178.811	12.2648	-75.6604	-164.518	10.2201	-99.267	-144.424	18.657	-128.124	-158.259	5.84154	-50.8184	-141.561	-0.562043	-68.994	-132.106	-5.68901	-89.5824	-195.913	5.45468	-24.6799	-216.15	-1.11298	1.10098	-233.718	22.5272	-24.4273	
